<svg width="18" height="14" viewBox="0 0 18 14" fill="none" xmlns="http://www.w3.org/2000/svg">
<path d="M0.537043 12.2668V2.08503H4.55409C5.32303 2.08503 5.97928 2.22257 6.52284 2.49767C7.06971 2.76945 7.48567 3.15558 7.77071 3.65605C8.05906 4.15321 8.20324 4.7382 8.20324 5.41102C8.20324 6.08716 8.0574 6.66883 7.76574 7.15605C7.47407 7.63995 7.05148 8.01116 6.49798 8.26969C5.94779 8.52821 5.2816 8.65747 4.4994 8.65747H1.80977V6.92736H4.15139C4.56237 6.92736 4.90376 6.87101 5.17554 6.75832C5.44732 6.64563 5.6495 6.4766 5.78207 6.25122C5.91796 6.02584 5.98591 5.74578 5.98591 5.41102C5.98591 5.07295 5.91796 4.78792 5.78207 4.55591C5.6495 4.3239 5.44566 4.14824 5.17057 4.02892C4.89879 3.90629 4.55575 3.84497 4.14145 3.84497H2.68974V12.2668H0.537043ZM6.03562 7.63332L8.56616 12.2668H6.18974L3.71389 7.63332H6.03562ZM13.0853 13.5396V0.812299H13.9007V13.5396H13.0853ZM15.248 5.01329C15.2082 4.61225 15.0375 4.3007 14.7359 4.07864C14.4343 3.85657 14.025 3.74554 13.5079 3.74554C13.1566 3.74554 12.86 3.79525 12.618 3.89469C12.3761 3.9908 12.1905 4.12504 12.0612 4.29739C11.9352 4.46973 11.8723 4.66528 11.8723 4.88403C11.8656 5.06632 11.9038 5.22542 11.9866 5.36131C12.0728 5.4972 12.1905 5.61486 12.3396 5.71429C12.4887 5.81041 12.6611 5.89492 12.8566 5.96784C13.0522 6.03744 13.261 6.0971 13.4831 6.14682L14.3978 6.36557C14.842 6.465 15.2496 6.59757 15.6208 6.76329C15.9921 6.92901 16.3136 7.13285 16.5853 7.3748C16.8571 7.61675 17.0676 7.90179 17.2167 8.22991C17.3692 8.55804 17.4471 8.93422 17.4504 9.35846C17.4471 9.98157 17.288 10.5218 16.9731 10.9792C16.6616 11.4333 16.2108 11.7863 15.6208 12.0382C15.0342 12.2867 14.3266 12.411 13.498 12.411C12.676 12.411 11.9601 12.2851 11.3503 12.0332C10.7437 11.7813 10.2698 11.4084 9.92838 10.9146C9.59031 10.4174 9.41299 9.80259 9.39642 9.07011H11.4795C11.5027 9.4115 11.6005 9.69653 11.7728 9.92523C11.9485 10.1506 12.1822 10.3213 12.4738 10.4373C12.7688 10.55 13.1019 10.6063 13.4731 10.6063C13.8377 10.6063 14.1542 10.5533 14.4227 10.4472C14.6945 10.3412 14.9049 10.1937 15.0541 10.0048C15.2032 9.81585 15.2778 9.59876 15.2778 9.35349C15.2778 9.1248 15.2099 8.93257 15.074 8.77679C14.9414 8.62101 14.7458 8.48844 14.4873 8.37906C14.2321 8.26969 13.9189 8.17025 13.5477 8.08077L12.439 7.80236C11.5806 7.59355 10.9028 7.26708 10.4057 6.82295C9.90849 6.37882 9.66157 5.78058 9.66488 5.02821C9.66157 4.41173 9.82563 3.87314 10.1571 3.41244C10.4918 2.95174 10.9509 2.59213 11.5342 2.33361C12.1175 2.07508 12.7804 1.94582 13.5228 1.94582C14.2785 1.94582 14.9381 2.07508 15.5015 2.33361C16.0683 2.59213 16.5091 2.95174 16.824 3.41244C17.1388 3.87314 17.3012 4.40676 17.3112 5.01329H15.248Z" fill="#3FA7B8"/>
</svg>
