<svg width="13" height="15" viewBox="0 0 13 15" fill="none" xmlns="http://www.w3.org/2000/svg">
<path d="M2.1748 5.75007H2.9248L2.9248 5.74901L2.1748 5.75007ZM6.69355 1.25007L6.69923 0.50009L6.69772 0.500081L6.69355 1.25007ZM12.0311 10.5001L12.6806 10.1251L12.6801 10.1243L12.0311 10.5001ZM11.5998 11.2501V12.0001L11.6024 12.0001L11.5998 11.2501ZM1.7248 11.2501L1.72216 12.0001H1.7248V11.2501ZM1.29355 10.5001L0.644481 10.1243L0.644035 10.1251L1.29355 10.5001ZM5.41235 11.2501C5.41235 10.8358 5.07657 10.5001 4.66235 10.5001C4.24814 10.5001 3.91235 10.8358 3.91235 11.2501H5.41235ZM4.66235 11.7501H3.91235H4.66235ZM9.41235 11.2501C9.41235 10.8358 9.07657 10.5001 8.66235 10.5001C8.24814 10.5001 7.91235 10.8358 7.91235 11.2501H9.41235ZM2.9248 5.74901C2.92411 5.25518 3.02112 4.76609 3.21026 4.30992L1.82463 3.73542C1.55971 4.37438 1.42383 5.05943 1.4248 5.75112L2.9248 5.74901ZM3.21026 4.30992C3.39939 3.85374 3.67691 3.43949 4.02683 3.09102L2.96837 2.02816C2.47825 2.51624 2.08954 3.09647 1.82463 3.73542L3.21026 4.30992ZM4.02683 3.09102C4.37674 2.74256 4.79214 2.46676 5.2491 2.27953L4.68038 0.891523C4.04033 1.15378 3.45849 1.54007 2.96837 2.02816L4.02683 3.09102ZM5.2491 2.27953C5.70606 2.09229 6.19555 1.99731 6.68938 2.00006L6.69772 0.500081C6.00604 0.496232 5.32043 0.629267 4.68038 0.891523L5.2491 2.27953ZM6.68787 2.00005C8.7374 2.01557 10.3998 3.72345 10.3998 5.80632H11.8998C11.8998 2.92669 9.59971 0.522064 6.69923 0.500091L6.68787 2.00005ZM10.3998 5.80632V6.25007H11.8998V5.80632H10.3998ZM10.3998 6.25007C10.3998 8.59381 10.8916 10.0288 11.382 10.8758L12.6801 10.1243C12.3455 9.54636 11.8998 8.38133 11.8998 6.25007H10.3998ZM11.3815 10.8751C11.3596 10.8371 11.3481 10.7941 11.348 10.7503L12.848 10.749C12.8478 10.5299 12.7901 10.3148 12.6806 10.1251L11.3815 10.8751ZM11.348 10.7503C11.348 10.7065 11.3595 10.6634 11.3813 10.6255L12.6817 11.3732C12.7909 11.1833 12.8482 10.968 12.848 10.749L11.348 10.7503ZM11.3813 10.6255C11.4032 10.5875 11.4346 10.5559 11.4725 10.5339L12.2259 11.8309C12.4153 11.7209 12.5725 11.5631 12.6817 11.3732L11.3813 10.6255ZM11.4725 10.5339C11.5104 10.5119 11.5534 10.5002 11.5972 10.5001L11.6024 12.0001C11.8215 11.9993 12.0365 11.941 12.2259 11.8309L11.4725 10.5339ZM11.5998 10.5001H1.7248V12.0001H11.5998V10.5001ZM1.72744 10.5001C1.77125 10.5002 1.81425 10.5119 1.85213 10.5339L1.0987 11.8309C1.28812 11.941 1.50312 11.9993 1.72216 12.0001L1.72744 10.5001ZM1.85213 10.5339C1.89002 10.5559 1.92145 10.5875 1.94329 10.6255L0.64293 11.3732C0.752118 11.5631 0.909291 11.7209 1.0987 11.8309L1.85213 10.5339ZM1.94329 10.6255C1.96513 10.6634 1.9766 10.7065 1.97656 10.7503L0.476563 10.749C0.476369 10.968 0.53374 11.1833 0.64293 11.3732L1.94329 10.6255ZM1.97656 10.7503C1.97652 10.7941 1.96497 10.8371 1.94307 10.8751L0.644035 10.1251C0.534509 10.3148 0.476757 10.5299 0.476563 10.749L1.97656 10.7503ZM1.94262 10.8758C2.43303 10.0288 2.9248 8.59381 2.9248 6.25007H1.4248C1.4248 8.38133 0.979073 9.54636 0.644482 10.1243L1.94262 10.8758ZM2.9248 6.25007V5.75007H1.4248V6.25007H2.9248ZM3.91235 11.2501V11.7501H5.41235V11.2501H3.91235ZM3.91235 11.7501C3.91235 12.4794 4.20208 13.1789 4.71781 13.6946L5.77847 12.6339C5.54405 12.3995 5.41235 12.0816 5.41235 11.7501H3.91235ZM4.71781 13.6946C5.23353 14.2103 5.93301 14.5001 6.66235 14.5001V13.0001C6.33083 13.0001 6.01289 12.8684 5.77847 12.6339L4.71781 13.6946ZM6.66235 14.5001C7.3917 14.5001 8.09117 14.2103 8.6069 13.6946L7.54624 12.6339C7.31182 12.8684 6.99387 13.0001 6.66235 13.0001V14.5001ZM8.6069 13.6946C9.12262 13.1789 9.41235 12.4794 9.41235 11.7501H7.91235C7.91235 12.0816 7.78066 12.3995 7.54624 12.6339L8.6069 13.6946ZM9.41235 11.7501V11.2501H7.91235V11.7501H9.41235Z" fill="#777777"/>
</svg>
